<?xml version="1.0" encoding="UTF-8"?>
<!DOCTYPE svg PUBLIC "-//W3C//DTD SVG 1.1//EN" "http://www.w3.org/Graphics/SVG/1.1/DTD/svg11.dtd">
<!-- Creator: CorelDRAW X8 -->
<svg xmlns="http://www.w3.org/2000/svg" xml:space="preserve" width="8.26772in" height="11.6929in" version="1.1" style="shape-rendering:geometricPrecision; text-rendering:geometricPrecision; image-rendering:optimizeQuality; fill-rule:evenodd; clip-rule:evenodd"
viewBox="0 0 8268 11693"
 xmlns:xlink="http://www.w3.org/1999/xlink">
 <defs>
  <style type="text/css">
   <![CDATA[
    .fil0 {fill:black}
   ]]>
  </style>
 </defs>
 <g id="Layer_x0020_1">
  <metadata id="CorelCorpID_0Corel-Layer"/>
  <path class="fil0" d="M7391 4555l640 0 0 -386c0,-280 230,-510 511,-510l0 0c280,0 510,230 510,510l0 386 641 0c295,0 536,241 536,536l0 673 374 0c281,0 510,230 510,510l0 0c0,281 -229,511 -510,511l-374 0 0 608c0,295 -241,537 -536,537l-641 0 0 -386c0,-280 -230,-510 -510,-510l0 0c-281,0 -511,230 -511,510l0 386 -640 0c-296,0 -537,-242 -537,-537l0 -608 374 0c281,0 510,-230 510,-511l0 0c0,-280 -229,-510 -510,-510l-374 0 0 -673c0,-295 241,-536 537,-536z"/>
 </g>
</svg>
