<?xml version="1.0" encoding="UTF-8"?>
<!DOCTYPE svg PUBLIC "-//W3C//DTD SVG 1.1//EN" "http://www.w3.org/Graphics/SVG/1.1/DTD/svg11.dtd">
<!-- Creator: CorelDRAW X8 -->
<svg xmlns="http://www.w3.org/2000/svg" xml:space="preserve" width="8.26772in" height="11.6929in" version="1.1" style="shape-rendering:geometricPrecision; text-rendering:geometricPrecision; image-rendering:optimizeQuality; fill-rule:evenodd; clip-rule:evenodd"
viewBox="0 0 8268 11693"
 xmlns:xlink="http://www.w3.org/1999/xlink">
 <defs>
  <style type="text/css">
   <![CDATA[
    .fil0 {fill:#373435}
   ]]>
  </style>
 </defs>
 <g id="Layer_x0020_1">
  <metadata id="CorelCorpID_0Corel-Layer"/>
  <path class="fil0" d="M4716 303l436 435 1 -974 117 0 0 973c14,-4 98,-94 110,-106 28,-27 315,-317 330,-327l82 81 -578 580 -580 -579 82 -83zm486 -1069l27 0c83,1 166,11 244,30 120,29 189,59 299,118 15,7 30,17 44,26 115,74 155,115 245,208 7,8 8,11 15,18 11,14 20,25 31,39 64,77 140,217 172,314 38,113 60,228 64,344l0 78c-3,76 -13,151 -32,226 -19,77 -58,184 -96,254 -8,16 -17,31 -25,45 -30,49 -76,119 -116,164 -78,87 -127,131 -219,198 -15,11 -27,17 -43,27 -15,10 -27,17 -43,26 -129,72 -271,121 -419,138 -60,7 -46,5 -97,7 -16,0 -15,2 -29,3l-2 0 -131 -8c-151,-18 -293,-60 -426,-134 -31,-18 -57,-34 -86,-54 -42,-28 -114,-85 -154,-123l-99 -111 -85 -124c-52,-87 -98,-192 -123,-294 -35,-139 -35,-189 -35,-329 0,-149 58,-360 133,-490 81,-139 151,-235 280,-340 71,-58 170,-123 255,-158 68,-28 128,-52 207,-70 79,-18 161,-27 244,-28z"/>
 </g>
</svg>
