<?xml version="1.0" encoding="UTF-8"?>
<!DOCTYPE svg PUBLIC "-//W3C//DTD SVG 1.1//EN" "http://www.w3.org/Graphics/SVG/1.1/DTD/svg11.dtd">
<!-- Creator: CorelDRAW X8 -->
<svg xmlns="http://www.w3.org/2000/svg" xml:space="preserve" width="8.26772in" height="11.6929in" version="1.1" style="shape-rendering:geometricPrecision; text-rendering:geometricPrecision; image-rendering:optimizeQuality; fill-rule:evenodd; clip-rule:evenodd"
viewBox="0 0 8268 11693"
 xmlns:xlink="http://www.w3.org/1999/xlink">
 <defs>
  <style type="text/css">
   <![CDATA[
    .fil0 {fill:#373435}
   ]]>
  </style>
 </defs>
 <g id="Layer_x0020_1">
  <metadata id="CorelCorpID_0Corel-Layer"/>
  <g id="_1941250753488">
   <path class="fil0" d="M1714 5760c0,-137 37,-240 90,-343 10,-18 22,-36 34,-53 120,-181 345,-307 563,-307 164,0 303,39 425,128 84,61 115,98 173,175 110,146 153,378 107,562 -17,67 -40,132 -74,189 -6,10 -11,17 -17,27 -4,6 -5,8 -9,14 -4,6 -5,7 -10,14 -67,97 -180,194 -288,238 -74,31 -124,47 -207,57l-83 6c-41,-1 -118,-10 -155,-19 -208,-47 -407,-205 -486,-397 -38,-94 -63,-180 -63,-291zm688 -1130l54 0c76,2 153,12 230,32 102,25 122,37 208,72 30,13 63,31 92,48 16,10 27,17 44,27 15,9 27,18 41,28l136 111c67,63 151,177 197,256 5,8 8,15 13,24 30,54 54,110 74,170 11,36 21,69 31,108 17,75 27,150 29,223l0 65c-9,297 -136,571 -333,767l-56 54c-46,44 -128,96 -186,131l-45 24c-86,43 -166,71 -260,94 -158,37 -350,38 -506,-1 -175,-43 -337,-118 -473,-237l-37 -33c-43,-34 -102,-103 -135,-148 -100,-132 -166,-269 -204,-433 -9,-42 -14,-78 -20,-123l-8 -132c0,-41 4,-94 9,-130 25,-197 85,-347 192,-509 19,-28 39,-52 60,-79 28,-35 105,-111 140,-141 71,-61 169,-126 256,-163 34,-15 64,-29 100,-41 34,-11 69,-24 107,-32 85,-18 167,-30 250,-32z"/>
   <path class="fil0" d="M2421 5757l0 -520c205,0 393,125 477,310 52,118 62,271 9,406 -23,57 -76,149 -119,177 -25,-36 -367,-357 -367,-373zm-590 3c0,148 63,305 164,406 55,55 90,85 165,122 157,79 360,80 516,1 37,-18 99,-55 129,-84 26,-25 46,-43 70,-73 43,-53 55,-77 83,-135 27,-57 50,-151 50,-237 0,-210 -109,-375 -247,-477 -228,-169 -554,-139 -759,65l-65 78c-20,30 -39,59 -53,94 -19,45 -25,59 -37,110 -8,33 -16,94 -16,130z"/>
  </g>
 </g>
</svg>
