<?xml version="1.0" encoding="UTF-8"?>
<!DOCTYPE svg PUBLIC "-//W3C//DTD SVG 1.1//EN" "http://www.w3.org/Graphics/SVG/1.1/DTD/svg11.dtd">
<!-- Creator: CorelDRAW X8 -->
<svg xmlns="http://www.w3.org/2000/svg" xml:space="preserve" width="8.26772in" height="11.6929in" version="1.1" style="shape-rendering:geometricPrecision; text-rendering:geometricPrecision; image-rendering:optimizeQuality; fill-rule:evenodd; clip-rule:evenodd"
viewBox="0 0 8268 11693"
 xmlns:xlink="http://www.w3.org/1999/xlink">
 <defs>
  <style type="text/css">
   <![CDATA[
    .fil0 {fill:#373435}
   ]]>
  </style>
 </defs>
 <g id="Layer_x0020_1">
  <metadata id="CorelCorpID_0Corel-Layer"/>
  <g id="_1904851037536">
   <path class="fil0" d="M4633 9055l0 -1077c0,-46 17,-93 66,-93l1134 0c38,0 66,36 66,77l0 1106c0,47 -33,80 -73,80l-1120 0c-24,0 -45,-13 -56,-27 -13,-16 -17,-38 -17,-66zm607 -1670l60 0c77,2 155,12 231,31 41,10 73,20 109,32 17,6 34,12 50,19 138,62 185,88 300,180 86,70 167,164 227,257 50,76 81,145 114,230 13,34 22,68 32,104 32,132 33,187 33,320 0,142 -49,326 -110,447 -32,64 -63,120 -105,175 -38,51 -52,69 -96,114 -8,8 -8,11 -15,19l-54 49c-106,85 -154,127 -297,190 -163,71 -343,103 -526,93 -55,-3 -131,-17 -183,-27 -37,-8 -73,-20 -109,-32 -36,-12 -64,-24 -98,-38 -44,-18 -141,-73 -179,-101l-117 -93c-39,-36 -100,-100 -133,-144 -7,-9 -10,-11 -16,-20 -6,-8 -8,-12 -14,-20 -47,-65 -93,-147 -123,-223 -63,-157 -85,-272 -85,-455 0,-91 15,-173 32,-248 8,-37 21,-73 32,-108 7,-18 13,-33 20,-50 41,-95 65,-138 123,-224 10,-14 20,-26 30,-40l64 -76c56,-68 190,-170 272,-214 29,-16 59,-33 90,-47 136,-61 288,-96 441,-100z"/>
   <path class="fil0" d="M5066 8862l-147 0c12,-23 23,-58 34,-84 11,-28 21,-57 33,-86 62,-156 122,-321 185,-476 4,-10 14,-33 15,-44l150 0c6,12 11,29 17,43 6,13 11,27 17,42l224 559c7,16 12,32 19,46l-150 0c-4,-16 -10,-27 -16,-42l-38 -101c-3,-10 -2,-17 -13,-17l-263 0c-14,0 -29,57 -37,77 -10,27 -19,59 -30,83zm-330 183l1060 0 0 -1060 -1060 0 0 1060z"/>
   <path class="fil0" d="M5166 8588l190 0c-1,-15 -60,-167 -70,-193 -7,-16 -17,-52 -27,-63 -2,10 -7,20 -11,32 -4,12 -8,20 -12,31l-58 159c-4,12 -7,24 -12,34z"/>
  </g>
 </g>
</svg>
