<?xml version="1.0" encoding="UTF-8"?>
<!DOCTYPE svg PUBLIC "-//W3C//DTD SVG 1.1//EN" "http://www.w3.org/Graphics/SVG/1.1/DTD/svg11.dtd">
<!-- Creator: CorelDRAW X8 -->
<svg xmlns="http://www.w3.org/2000/svg" xml:space="preserve" width="8.26772in" height="11.6929in" version="1.1" style="shape-rendering:geometricPrecision; text-rendering:geometricPrecision; image-rendering:optimizeQuality; fill-rule:evenodd; clip-rule:evenodd"
viewBox="0 0 8268 11693"
 xmlns:xlink="http://www.w3.org/1999/xlink">
 <defs>
  <style type="text/css">
   <![CDATA[
    .fil0 {fill:#373435}
   ]]>
  </style>
 </defs>
 <g id="Layer_x0020_1">
  <metadata id="CorelCorpID_0Corel-Layer"/>
  <path class="fil0" d="M2478 964l-117 0 0 -970c-13,3 -44,39 -56,51l-165 165c-18,17 -205,208 -219,217l-81 -82 577 -579 578 577 -80 82 -437 -435 0 974zm-92 -1730l58 0c293,7 571,129 766,324 113,112 220,268 271,422 3,9 7,17 10,27 48,143 57,245 57,400 0,105 -32,255 -69,351 -47,119 -77,171 -146,271 -36,53 -72,85 -95,115 -32,42 -147,131 -188,158 -30,20 -55,37 -87,54 -69,37 -99,49 -168,75 -82,31 -168,48 -255,58 -22,3 -44,5 -66,5 -20,0 -32,2 -48,3l-18 0c-14,-1 -15,-3 -30,-3 -51,-2 -38,0 -97,-7 -130,-15 -212,-44 -326,-90 -32,-13 -63,-31 -93,-48 -120,-67 -178,-121 -272,-214 -67,-67 -161,-206 -197,-290 -77,-181 -105,-295 -105,-505 0,-45 4,-90 9,-130 27,-190 92,-342 198,-499 19,-28 40,-52 62,-78 155,-186 368,-314 603,-370 76,-18 151,-27 226,-29z"/>
 </g>
</svg>
