<?xml version="1.0" encoding="UTF-8"?>
<!DOCTYPE svg PUBLIC "-//W3C//DTD SVG 1.1//EN" "http://www.w3.org/Graphics/SVG/1.1/DTD/svg11.dtd">
<!-- Creator: CorelDRAW X8 -->
<svg xmlns="http://www.w3.org/2000/svg" xml:space="preserve" width="8.26772in" height="11.6929in" version="1.1" style="shape-rendering:geometricPrecision; text-rendering:geometricPrecision; image-rendering:optimizeQuality; fill-rule:evenodd; clip-rule:evenodd"
viewBox="0 0 8268 11693"
 xmlns:xlink="http://www.w3.org/1999/xlink">
 <defs>
  <style type="text/css">
   <![CDATA[
    .fil0 {fill:#373435}
   ]]>
  </style>
 </defs>
 <g id="Layer_x0020_1">
  <metadata id="CorelCorpID_0Corel-Layer"/>
  <path class="fil0" d="M5103 6297l323 0 0 113 -323 0 0 -113zm143 -1667l45 0c81,2 162,12 240,32 43,11 118,32 157,50 17,7 31,12 47,20 63,31 121,60 176,100 58,42 71,56 115,91 12,9 23,22 34,33 37,38 67,69 99,111 10,13 19,24 29,38 30,43 79,122 101,172 29,65 53,125 72,201 48,192 48,379 0,571 -39,153 -98,256 -181,379 -7,9 -9,12 -16,21 -6,7 -9,12 -14,19l-66 74c-20,25 -81,77 -107,99 -130,107 -306,192 -471,226 -63,13 -179,30 -248,24 -23,-2 -46,1 -69,-1 -172,-14 -334,-61 -483,-146 -107,-62 -227,-158 -304,-253 -181,-224 -266,-456 -266,-751 0,-145 32,-278 83,-406 19,-47 43,-96 68,-139 30,-51 92,-143 133,-184l48 -51c41,-41 105,-96 153,-128 62,-40 108,-69 176,-100 135,-63 292,-98 449,-102zm407 504l276 463 0 460 -276 0 0 -923zm-230 1103l-314 0c-11,0 -31,-29 -39,-37 -7,-7 -12,-12 -18,-19l-94 -103c-23,-25 -19,-10 -19,-58l0 -233c22,15 152,177 167,177l317 0c11,0 29,-28 44,-43 21,-21 111,-124 126,-134l0 230c0,39 2,40 -20,61l-109 120c-8,9 -29,39 -41,39zm-814 -610c0,-14 24,-49 32,-62l245 -408 0 900 -277 0 0 -430z"/>
 </g>
</svg>
