<?xml version="1.0" encoding="UTF-8"?>
<!DOCTYPE svg PUBLIC "-//W3C//DTD SVG 1.1//EN" "http://www.w3.org/Graphics/SVG/1.1/DTD/svg11.dtd">
<!-- Creator: CorelDRAW X8 -->
<svg xmlns="http://www.w3.org/2000/svg" xml:space="preserve" width="8.26772in" height="11.6929in" version="1.1" style="shape-rendering:geometricPrecision; text-rendering:geometricPrecision; image-rendering:optimizeQuality; fill-rule:evenodd; clip-rule:evenodd"
viewBox="0 0 8268 11693"
 xmlns:xlink="http://www.w3.org/1999/xlink">
 <defs>
  <style type="text/css">
   <![CDATA[
    .fil0 {fill:#373435}
   ]]>
  </style>
 </defs>
 <g id="Layer_x0020_1">
  <metadata id="CorelCorpID_0Corel-Layer"/>
  <path class="fil0" d="M2043 3023l975 1 0 117 -974 0 438 439 -84 82 -581 -580 580 -579 85 84 -439 436zm352 -1072l41 0c190,3 379,54 538,146 113,65 219,149 303,248 32,39 89,114 115,161 40,73 59,108 89,189 58,160 67,260 67,433 0,243 -118,517 -280,700l-222 194c-146,97 -337,172 -512,185l-130 7c-99,-8 -147,-6 -248,-32 -123,-31 -189,-59 -298,-118 -59,-32 -114,-74 -166,-115 -62,-48 -154,-151 -199,-217 -35,-50 -51,-79 -80,-130 -9,-16 -14,-28 -21,-45 -75,-176 -104,-287 -104,-496 0,-112 27,-258 63,-356 37,-97 83,-196 144,-277l62 -78c112,-134 281,-261 444,-320 64,-23 91,-34 159,-50 77,-18 156,-28 235,-29z"/>
 </g>
</svg>
