<?xml version="1.0" encoding="UTF-8"?>
<!DOCTYPE svg PUBLIC "-//W3C//DTD SVG 1.1//EN" "http://www.w3.org/Graphics/SVG/1.1/DTD/svg11.dtd">
<!-- Creator: CorelDRAW X8 -->
<svg xmlns="http://www.w3.org/2000/svg" xml:space="preserve" width="8.26772in" height="11.6929in" version="1.1" style="shape-rendering:geometricPrecision; text-rendering:geometricPrecision; image-rendering:optimizeQuality; fill-rule:evenodd; clip-rule:evenodd"
viewBox="0 0 8268 11693"
 xmlns:xlink="http://www.w3.org/1999/xlink">
 <defs>
  <style type="text/css">
   <![CDATA[
    .fil0 {fill:#373435}
   ]]>
  </style>
 </defs>
 <g id="Layer_x0020_1">
  <metadata id="CorelCorpID_0Corel-Layer"/>
  <path class="fil0" d="M5209 11705l117 0 0 124 -117 0 0 -124zm93 417l-78 0c-73,-3 -146,-13 -218,-30 -149,-36 -255,-86 -385,-172 -27,-18 -55,-39 -79,-61 -73,-63 -67,-61 -124,-120 -33,-34 -76,-97 -104,-138 -28,-43 -51,-87 -74,-134l-40 -99c-49,-146 -64,-244 -64,-406 0,-86 16,-177 33,-247 38,-152 93,-256 176,-380 19,-29 71,-92 95,-116 34,-33 70,-71 106,-100 27,-21 52,-41 80,-60 138,-99 337,-175 506,-191 19,-2 44,-6 64,-6l130 0c90,-1 210,30 295,55l52 18c168,68 252,130 380,243l68 72c6,9 10,11 17,20 130,165 216,339 247,553 26,179 9,333 -38,503l-38 103c-7,17 -13,29 -20,46 -30,74 -139,232 -196,288 -12,12 -21,21 -33,33 -198,199 -475,316 -758,326zm-37 -1498l305 304 -244 1 0 693 -117 0 0 -683c0,-16 -26,-10 -53,-10l-193 0 302 -305zm-55 -18l-1 -247 117 0 0 250 -59 -58 -57 55zm-1 -467l107 0c8,0 10,2 10,10l0 113 -117 0 0 -123z"/>
 </g>
</svg>
