<?xml version="1.0" encoding="UTF-8"?>
<!DOCTYPE svg PUBLIC "-//W3C//DTD SVG 1.1//EN" "http://www.w3.org/Graphics/SVG/1.1/DTD/svg11.dtd">
<!-- Creator: CorelDRAW X8 -->
<svg xmlns="http://www.w3.org/2000/svg" xml:space="preserve" width="8.26772in" height="11.6929in" version="1.1" style="shape-rendering:geometricPrecision; text-rendering:geometricPrecision; image-rendering:optimizeQuality; fill-rule:evenodd; clip-rule:evenodd"
viewBox="0 0 8268 11693"
 xmlns:xlink="http://www.w3.org/1999/xlink">
 <defs>
  <style type="text/css">
   <![CDATA[
    .fil0 {fill:#373435}
   ]]>
  </style>
 </defs>
 <g id="Layer_x0020_1">
  <metadata id="CorelCorpID_0Corel-Layer"/>
  <path class="fil0" d="M5288 2503l579 577 -580 582 -82 -84 435 -436 -974 -1 0 -117 973 0c-4,-15 -93,-98 -106,-111l-327 -325 82 -85zm-40 -552l48 0c112,2 223,23 341,62 33,11 122,47 150,64 14,9 29,16 45,25 62,35 109,71 164,115 8,6 12,12 19,18 40,32 88,85 122,125 45,54 80,103 115,165 198,356 194,763 -2,1117 -45,82 -118,175 -183,240 -102,101 -154,130 -266,197 -27,16 -41,20 -70,34 -59,28 -140,57 -212,71 -66,14 -160,28 -234,30l-22 0 -131 -10c-43,-5 -80,-12 -119,-20 -50,-10 -115,-32 -163,-51 -18,-7 -31,-13 -49,-21 -80,-33 -155,-83 -223,-134 -14,-10 -25,-20 -38,-31 -81,-65 -142,-138 -202,-221 -33,-46 -81,-128 -103,-181 -56,-131 -99,-278 -99,-464 0,-90 12,-182 29,-254 18,-74 57,-193 93,-257l51 -89c50,-76 106,-153 174,-213 28,-24 37,-36 76,-68l80 -59c8,-5 13,-8 21,-13 43,-29 89,-53 136,-74 65,-29 130,-54 208,-72 85,-19 165,-29 244,-31z"/>
 </g>
</svg>
