<?xml version="1.0" encoding="UTF-8"?>
<!DOCTYPE svg PUBLIC "-//W3C//DTD SVG 1.1//EN" "http://www.w3.org/Graphics/SVG/1.1/DTD/svg11.dtd">
<!-- Creator: CorelDRAW X8 -->
<svg xmlns="http://www.w3.org/2000/svg" xml:space="preserve" width="8.26772in" height="11.6929in" version="1.1" style="shape-rendering:geometricPrecision; text-rendering:geometricPrecision; image-rendering:optimizeQuality; fill-rule:evenodd; clip-rule:evenodd"
viewBox="0 0 8268 11693"
 xmlns:xlink="http://www.w3.org/1999/xlink">
 <defs>
  <style type="text/css">
   <![CDATA[
    .fil0 {fill:#373435}
   ]]>
  </style>
 </defs>
 <g id="Layer_x0020_1">
  <metadata id="CorelCorpID_0Corel-Layer"/>
  <path class="fil0" d="M1758 8675l0 -330c0,-45 18,-72 48,-89 64,-36 173,2 234,-38l77 -61c27,-22 47,-40 71,-64 51,-51 163,-188 223,-188 70,0 123,49 123,120l0 980c0,69 -48,120 -116,120 -69,0 -167,-121 -230,-184l-53 -50c-98,-83 -90,-96 -217,-96 -88,0 -160,-20 -160,-120zm642 -1290l49 0c151,3 302,37 441,101 86,40 206,114 277,180l103 103 76 97c57,87 109,176 142,275 37,112 59,227 63,342l0 78c-3,75 -13,150 -32,225 -16,65 -61,196 -96,254 -10,16 -16,31 -25,45 -60,100 -132,190 -218,269 -8,8 -12,9 -20,17 -8,7 -10,8 -18,15 -177,149 -416,247 -648,259 -22,1 -43,-1 -66,1 -69,6 -186,-12 -250,-25 -74,-16 -147,-41 -210,-69 -68,-31 -122,-60 -181,-100 -29,-19 -54,-38 -80,-59l-39 -32c-45,-42 -96,-93 -134,-143 -95,-125 -169,-260 -208,-418 -35,-139 -35,-189 -35,-328 0,-148 49,-317 108,-443 39,-84 103,-179 163,-250 7,-7 11,-10 18,-19 40,-51 150,-142 200,-176 182,-127 400,-194 620,-199zm271 930c0,-10 31,-79 63,-87 43,29 70,70 93,115 69,139 43,369 -96,462 -23,-20 -60,-59 -60,-93 0,-1 25,-34 29,-38 76,-102 67,-211 -2,-313 -5,-8 -27,-38 -27,-46zm183 -273c40,10 127,131 147,167 20,34 36,65 50,106 40,107 30,160 30,273 0,96 -81,256 -144,326 -19,21 -33,40 -58,59 -7,5 -18,14 -21,19 -28,-19 -41,-39 -57,-67 -6,-9 -11,-16 -17,-27 17,-9 24,-17 38,-28 37,-29 65,-73 88,-112 8,-13 16,-30 22,-45 42,-98 47,-238 18,-340 -12,-40 -23,-65 -39,-98 -27,-54 -78,-111 -127,-143 20,-29 42,-71 70,-90z"/>
 </g>
</svg>
