<?xml version="1.0" encoding="UTF-8"?>
<!DOCTYPE svg PUBLIC "-//W3C//DTD SVG 1.1//EN" "http://www.w3.org/Graphics/SVG/1.1/DTD/svg11.dtd">
<!-- Creator: CorelDRAW X8 -->
<svg xmlns="http://www.w3.org/2000/svg" xml:space="preserve" width="8.26772in" height="11.6929in" version="1.1" style="shape-rendering:geometricPrecision; text-rendering:geometricPrecision; image-rendering:optimizeQuality; fill-rule:evenodd; clip-rule:evenodd"
viewBox="0 0 8268 11693"
 xmlns:xlink="http://www.w3.org/1999/xlink">
 <defs>
  <style type="text/css">
   <![CDATA[
    .fil0 {fill:#373435}
   ]]>
  </style>
 </defs>
 <g id="Layer_x0020_1">
  <metadata id="CorelCorpID_0Corel-Layer"/>
  <path class="fil0" d="M2851 10322l117 0 0 1337 -117 0 0 -1337zm-396 1800l-61 0c-114,-3 -229,-24 -344,-62 -117,-39 -261,-119 -352,-199l-71 -65c-52,-52 -84,-88 -128,-149 -79,-110 -140,-241 -173,-373 -35,-140 -35,-186 -35,-325 0,-133 46,-320 105,-438 32,-62 62,-120 101,-173 10,-14 20,-26 30,-40l147 -156c8,-6 10,-9 18,-16 25,-21 50,-40 77,-59 232,-168 544,-238 827,-193 74,12 148,30 216,56 137,53 195,89 308,173 8,6 11,8 18,15l89 81c42,43 91,100 124,150 25,37 57,88 78,128 66,130 122,312 122,492 0,173 -29,347 -104,498 -50,99 -67,129 -132,216 -11,14 -20,25 -31,38 -41,51 -75,82 -121,123l-95 75c-81,53 -131,84 -225,121 -128,52 -258,78 -388,82zm-584 -1790c0,-8 2,-10 10,-10l100 0c8,0 10,2 10,10l0 1327 -120 0 0 -1327zm549 386l305 303 -247 1 0 247 -117 0 0 -247 -243 0 302 -304z"/>
 </g>
</svg>
